<svg xmlns="http://www.w3.org/2000/svg" width="155" height="25" viewBox="0 0 155 25">
    <g fill="none" fill-rule="evenodd">
        <g fill="#FFF">
            <g>
                <path d="M12.869 0h2.504v14.092h-2.467v-8.55l-4.327 8.55H6.795l-4.33-8.55v8.55H0V0h2.504l.105.207 5.078 10.068L12.764.207 12.869 0zm32.296.147s-3.304 4.348-4.327 5.692L36.6.149 36.488 0h-3.25l.483.633 5.877 7.71v5.75h2.468v-5.75L47.94.633 48.424 0h-3.145l-.114.147zm26.523 7.917h8.16V5.582h-8.16V2.487h8.505V0H69.22v14.092h11.072v-2.484h-8.604V8.064zm24.955 3.544h-7.686V0H86.49v14.092h10.152v-2.484zm15.251 0h-7.684V0h-2.466v14.092h10.15v-2.484zm4.918 2.484h2.466V0h-2.466v14.092zm18.385-4.466L127.783.142 127.671 0h-2.211v14.092h2.463V4.468l7.416 9.482.111.142h2.214V0h-2.467v9.626zm19.657 1.982h-8.607V8.064h8.162V5.582h-8.162V2.487h8.506V0H143.78v14.092h11.074v-2.484zM27.438 0l6.171 14.092h-2.738l-.099-.228-1.625-3.733h-5.37c-.367.848-1.624 3.733-1.624 3.733l-.101.228h-2.737L25.487 0h1.951zm-.976 3.954l-1.607 3.69v.005h3.215c-.391-.904-1.158-2.665-1.608-3.695zM63.69 9.818c0 1.138-.39 2.175-1.095 2.921-.846.898-2.089 1.353-3.686 1.353h-7.063V0h7.177c2.676 0 4.273 1.47 4.273 3.93 0 1.115-.37 2.042-1.075 2.711 1.352 1.001 1.469 2.652 1.469 3.177zM60.829 3.98c0-1.28-.566-1.494-2.264-1.494h-4.252v3.095h4.366c1.892 0 2.15-.812 2.15-1.6zm-2.281 4.083h-4.235v3.544h4.433c2.22 0 2.476-1.062 2.476-1.858 0-1.44-.828-1.686-2.674-1.686zm33.315 13.648l-3.695-4.79h-1.679v6.9h1.574v-4.797l3.697 4.797h1.676v-6.9h-1.573v4.79zm5.75-.868h4.206v-1.152h-4.206V18.13h4.544V16.92h-6.19v6.9h6.272v-1.207h-4.626v-1.77zm14.803 1.026l-1.577-4.949h-1.632l-1.623 4.949-1.45-4.949h-1.686l2.238 6.836.023.065h1.64L110 18.86l1.615 4.962h1.616l2.369-6.9h-1.683l-1.5 4.948zm10.524-2.005l-2.16-2.944h-1.934l3.232 4.21v2.69h1.647v-2.69l3.216-4.21h-1.873l-2.128 2.944zm12.923.521c0 2.126-1.683 3.614-4.09 3.614-2.406 0-4.087-1.488-4.087-3.614 0-2.123 1.681-3.609 4.087-3.609 2.407 0 4.09 1.486 4.09 3.61zm-1.646 0c0-1.812-1.316-2.457-2.444-2.457-1.802 0-2.442 1.323-2.442 2.457s.64 2.458 2.442 2.458c1.128 0 2.444-.643 2.444-2.458zm10.986 3.271l.202.172h-1.868l-.03-.036c-.241-.318-.241-.706-.241-1.046 0-1.139-.234-1.68-1.565-1.68h-2.057v2.762h-1.646v-6.901h4.073c1.842 0 2.852.68 2.852 1.91 0 .786-.402 1.375-1.141 1.681.417.129 1.001.483 1.001 1.448 0 .83.155 1.463.42 1.69zm-3.28-5.575h-2.279v1.898h2.302c.606 0 1.33-.169 1.33-.973 0-.647-.406-.925-1.354-.925zm12.905-1.16h-2.106l-3.59 2.948v-2.949h-1.644v6.9h1.644v-2.3l1.085-.866 2.707 3.167H155l-3.64-4.114 3.468-2.787z" transform="translate(-30 -17) translate(30 17.5)"/>
            </g>
        </g>
    </g>
</svg>
